<?xml version="1.0" encoding="UTF-8"?>
<!DOCTYPE svg PUBLIC "-//W3C//DTD SVG 1.1//EN" "http://www.w3.org/Graphics/SVG/1.1/DTD/svg11.dtd">
<!-- Creator: CorelDRAW 2018 (64 Bit) -->
<svg xmlns="http://www.w3.org/2000/svg" xml:space="preserve" width="407px" height="147px" version="1.1" style="shape-rendering:geometricPrecision; text-rendering:geometricPrecision; image-rendering:optimizeQuality; fill-rule:evenodd; clip-rule:evenodd"
viewBox="0 0 159.71 57.55"
 xmlns:xlink="http://www.w3.org/1999/xlink">
 <defs>
  <style type="text/css">
   <![CDATA[
    .str0 {stroke:#FEFEFE;stroke-width:0.46;stroke-miterlimit:2.61313}
    .fil2 {fill:none}
    .fil3 {fill:#FEFEFE}
    .fil1 {fill:#FEFEFE;fill-rule:nonzero}
    .fil0 {fill:#F08639;fill-rule:nonzero}
   ]]>
  </style>
 </defs>
 <g id="Capa_x0020_1">
  <metadata id="CorelCorpID_0Corel-Layer"/>
  <g id="_1419414289104">
   <path class="fil0" d="M134.61 3.85l-9.28 22.63 0.13 0.59c2.85,-2.41 5.74,-5.44 8.68,-9.11l7.41 -9.16 1.97 -2.95c0.58,-0.79 1.17,-1.19 1.78,-1.19l-0.22 0.71c-0.44,1.46 -1.63,3.41 -3.57,5.85l-3.17 4.08 -10.38 11.88c-0.21,0.71 -0.19,1.06 0.07,1.06l3.27 -3.42c2.08,-2.13 3.29,-3.57 3.63,-4.32l0.88 -1.65c0.22,-0.36 0.44,-0.38 0.67,-0.06l0.28 -0.95c1.99,-1.85 3.92,-4.14 5.77,-6.85l4.53 -6.62c0.14,0.11 0.18,0.33 0.11,0.65l-0.36 0.76c-0.33,0.24 -0.58,0.58 -0.73,1.01l-0.04 0.53 -3.07 4.49c0.81,-0.79 1.95,-2.19 3.42,-4.19l2.68 -3.61 0.51 0c0.02,0.24 -0.1,0.54 -0.36,0.92 -0.26,0.37 -0.43,0.69 -0.51,0.97 0.2,0 0.57,-0.35 1.1,-1.06 0.53,-0.71 0.98,-1.13 1.36,-1.25l-0.87 1.9c-2.07,2.28 -4.28,5.1 -6.64,8.45l0 0.29c0.94,-1.02 1.79,-1.98 2.54,-2.86 0.76,-0.89 1.59,-1.92 2.5,-3.08 0.91,-1.16 1.88,-2.65 2.92,-4.46l-0.32 0.18c0.21,-0.12 0.36,-0.18 0.44,-0.18 0.15,0 0.28,-0.12 0.41,-0.35l0.3 0c-0.45,0.94 -1.24,2.22 -2.36,3.84l-1.99 2.89c0.63,-0.67 1.4,-1.59 2.3,-2.78l2.95 -4.07c0.26,0 0.33,0.25 0.2,0.76l-0.19 0.48 -0.22 0.47 -3.01 3.96c-0.94,1.22 -1.94,2.26 -3.01,3.13l0.04 -0.82c-1.32,1.22 -3.52,3.56 -6.6,7.03 -3.08,3.47 -5.38,5.91 -6.9,7.33 0.29,3.5 1.07,6.86 2.32,10.07 1.26,3.2 2.92,5.77 4.98,7.7 -0.01,0.12 0,0.21 0.02,0.29 0.02,0.08 0.1,0.26 0.24,0.53 0.15,0.28 0.13,0.63 -0.06,1.07 -0.46,0.47 -0.84,0.71 -1.16,0.71 -0.23,0 -0.56,-0.42 -1,-1.24 -0.34,-0.79 -0.65,-1.24 -0.93,-1.36 -0.23,0.39 -0.24,0.87 -0.04,1.42 0.29,0.47 0.39,0.84 0.31,1.12l-0.29 0.53c-1.77,-1.85 -3.22,-4.38 -4.38,-7.61 -1.15,-3.23 -1.99,-6.79 -2.54,-10.69 -0.36,1.18 -0.48,2.18 -0.38,2.98 0.1,0.81 0.66,2.99 1.69,6.53l4.85 12.16 -0.36 0.35c-1.53,-1.29 -2.82,-3.22 -3.85,-5.78l-2.51 -6.26c-0.09,0.87 -0.01,1.75 0.23,2.66l1.21 3.42 0.93 1.36c0.23,0.35 0.27,0.85 0.11,1.48 0.17,0.39 0.66,0.96 1.46,1.71 0.83,0.59 1.27,1.28 1.32,2.06l-0.49 0.18c-0.25,0 -0.61,-0.19 -1.07,-0.59l-0.85 -0.59c-0.2,0 -0.38,0.2 -0.52,0.59l-0.16 0.95 -0.98 -0.89c-0.08,0.28 0.03,0.6 0.33,0.98 0.3,0.37 0.34,0.8 0.11,1.27 -1.4,-0.79 -2.56,-2.36 -3.48,-4.72l-2.64 -6.97 -2.08 -10.8c-2.17,5.12 -3.66,8.62 -4.48,10.51 -0.81,1.89 -1.99,4.59 -3.54,8.1l-0.53 0.47 0.58 -2.48c0.22,-0.75 0.42,-1.34 0.58,-1.77 0.16,-0.44 0.49,-1.25 0.99,-2.46 0.51,-1.2 0.9,-2.15 1.17,-2.86 0.27,-0.71 0.5,-1.38 0.69,-2.01l0.33 -1.24c-0.27,0.51 -0.77,1.58 -1.52,3.19 -0.74,1.62 -1.4,3.03 -1.97,4.25l-2.64 5.91 -0.49 0.18c-0.14,0 -0.29,-0.12 -0.45,-0.35l-0.03 -0.89c2.27,-4.96 4.16,-9.94 5.66,-14.95 -0.29,0.59 -0.83,1.78 -1.62,3.55 -0.8,1.77 -1.5,3.33 -2.1,4.67l-2.95 6.79 -0.4 0.47 0.52 -2.3c0.09,-0.32 0.24,-0.75 0.43,-1.3 0.2,-0.55 0.46,-1.22 0.78,-2.01l1.19 -3.07 0.35 -1.6 -2.82 5.79 -2.13 4.79c-0.58,-0.2 -0.73,-0.75 -0.45,-1.65l0.65 -1.6c0.33,-0.71 0.53,-1.28 0.6,-1.71 -0.21,0.24 -0.61,1 -1.19,2.3 -0.58,1.3 -1.09,2.13 -1.54,2.49 0.53,-1.19 1.59,-3.7 3.19,-7.54 1.61,-3.84 2.47,-5.92 2.59,-6.23l6.78 -16.48c2.29,-5.6 3.92,-9.47 4.88,-11.61 0.96,-2.15 1.48,-3.26 1.56,-3.34 0.12,0 0.18,0.02 0.2,0.06l-3.94 8.92 -5.42 13.41c-1.17,2.95 -2.34,5.83 -3.48,8.63 -1.14,2.79 -2.01,4.84 -2.61,6.14l0.15 0.24c1.33,-2.41 3.25,-6.79 5.77,-13.15 2.52,-6.36 4.45,-10.7 5.78,-13.03 0.6,-2.01 1.18,-3.67 1.72,-4.99 0.54,-1.32 1.01,-2.4 1.41,-3.25 0.4,-0.85 0.9,-1.86 1.52,-3.04 0.16,0.51 0.12,1.16 -0.12,1.95 -0.16,0.55 -0.31,0.94 -0.44,1.18l-0.45 1.06 -7 16.96 -0.02 0.47c-0.06,0.2 -0.02,0.36 0.12,0.47 1.05,-1.69 2.6,-5.21 4.64,-10.54 2.04,-5.34 3.68,-9.05 4.91,-11.14 0.07,0.24 0.08,0.57 0.04,1l-0.24 1.24c-0.23,0.75 -0.58,1.68 -1.06,2.78l-0.81 2.13 -8.99 22.09 1.51 -1.71 11.48 -27.95 0.29 -0.23 -0.18 1.59 -0.45 1.78c-0.31,1.02 -0.85,2.5 -1.64,4.43l-1.54 4.13 0.21 0 5.27 -12.35c-0.54,1.81 -1.71,4.94 -3.49,9.37 -1.78,4.43 -2.86,7.29 -3.26,8.59l7.87 -18.37 0.19 0.65zm11.78 8.9c-0.05,0.63 -0.52,1.38 -1.41,2.25l-1.62 1.65c0.3,-0.7 0.77,-1.41 1.42,-2.12l1.61 -1.78zm-4.42 5.09l-2.06 2.12 2.03 -2.3 0.03 0.18zm-7.95 29.36l-0.31 -0.24 0.31 0.24zm2.92 -31.25l0.37 -0.65c-0.18,0.12 -0.29,0.22 -0.35,0.3 -0.14,0.19 -0.15,0.31 -0.02,0.35zm-11.14 7.4l0.22 0 0.5 -1.66 -0.22 0 -0.5 1.66zm0.15 6.37l0.26 0c0.16,-0.08 0.33,-0.21 0.51,-0.41 0.16,-0.24 0.21,-0.41 0.16,-0.53 -0.43,0 -0.74,0.31 -0.93,0.94zm3.31 1.59l0.09 -0.17 -0.35 -0.83 -0.1 0.18 0.36 0.82zm-12.95 3.97l1.7 -4.49 -1.82 4.61 0.12 -0.12zm9.73 -3.73c0.57,3.55 1.21,6.55 1.91,9.01 0.71,2.46 1.7,4.49 2.96,6.11l-2.05 -6.62c-0.64,-2.36 -1.11,-4.56 -1.41,-6.61 0.03,-0.47 -0.03,-0.83 -0.19,-1.09 -0.15,-0.26 -0.4,-0.38 -0.74,-0.38l0.72 -0.83c-0.02,-0.12 -0.07,-0.2 -0.14,-0.24 -0.08,-0.04 -0.12,-0.08 -0.14,-0.11 -0.25,0.07 -0.42,0.15 -0.5,0.23l-0.42 0.53zm9.33 -13.94l-2.69 2.78c-0.64,0.7 -1.17,1.49 -1.57,2.36l2.69 -2.96c0.77,-0.82 1.29,-1.55 1.57,-2.18z"/>
   <path class="fil1" d="M20.73 7.54l7.39 0 -1.83 3.53 -2.76 0 -3.57 6.9 2.77 0 -1.85 3.56 -2.76 0 -4.92 9.49 2.77 0 -1.85 3.57 -7.39 0 14 -27.05zm9.6 0l4.14 0 -4.47 13.49 0.21 0 6.89 -13.49 4.02 0 -14 27.05 -4.11 0 4.63 -13.86 -0.21 0 -7.07 13.86 -4.03 0 14 -27.05zm21 5.24l-2.07 3.99 -4.63 0 2.4 -4.62c0.22,-0.44 0.32,-0.74 0.29,-0.91 -0.03,-0.18 -0.18,-0.27 -0.45,-0.27 -0.25,0 -0.48,0.09 -0.68,0.27 -0.2,0.18 -0.41,0.48 -0.63,0.91l-9.25 17.87c-0.21,0.41 -0.31,0.7 -0.28,0.88 0.04,0.17 0.18,0.26 0.46,0.26 0.26,0 0.48,-0.09 0.67,-0.25 0.18,-0.16 0.39,-0.46 0.61,-0.89l3.57 -6.89 4.63 0 -3.22 6.22c-1.24,2.39 -2.34,3.89 -3.3,4.51 -0.95,0.62 -2.56,0.93 -4.81,0.93 -2.32,0 -3.64,-0.31 -3.95,-0.94 -0.32,-0.62 0.14,-2.12 1.37,-4.5l8.58 -16.57c1.25,-2.41 2.34,-3.91 3.28,-4.51 0.94,-0.59 2.56,-0.89 4.84,-0.89 2.33,0 3.64,0.31 3.95,0.92 0.3,0.63 -0.16,2.11 -1.38,4.48zm4.61 -5.24l4.63 0 -11.64 22.48c-0.22,0.42 -0.32,0.72 -0.3,0.9 0.02,0.18 0.17,0.27 0.43,0.27 0.26,0 0.48,-0.08 0.67,-0.25 0.19,-0.17 0.4,-0.48 0.63,-0.92l11.64 -22.48 4.63 0 -11.32 21.86c-1.22,2.36 -2.3,3.84 -3.26,4.46 -0.95,0.62 -2.56,0.93 -4.83,0.93 -2.32,0 -3.64,-0.31 -3.95,-0.94 -0.31,-0.62 0.14,-2.11 1.35,-4.45l11.32 -21.86zm12.91 0l7.4 0 -1.83 3.53 -2.77 0 -3.56 6.9 2.76 0 -1.85 3.56 -2.76 0 -4.91 9.49 2.76 0 -1.84 3.57 -7.4 0 14 -27.05zm9.6 0l4.14 0 -4.47 13.49 0.21 0 6.9 -13.49 4.01 0 -14 27.05 -4.11 0 4.63 -13.86 -0.21 0 -7.07 13.86 -4.03 0 14 -27.05zm12.29 0l9.16 0 -1.86 3.6 -2.27 0 -12.14 23.45 -4.63 0 12.14 -23.45 -2.26 0 1.86 -3.6zm13.42 3.53l-4.27 8.26c0.05,0 0.12,0.01 0.21,0.02 0.08,0.01 0.14,0.02 0.18,0.02 0.41,0 0.74,-0.1 0.98,-0.29 0.25,-0.19 0.52,-0.56 0.8,-1.11l2.68 -5.19c0.43,-0.81 0.6,-1.3 0.54,-1.46 -0.07,-0.16 -0.34,-0.25 -0.81,-0.25l-0.31 0zm-2.8 -3.53l5.67 0c2.02,0 3.18,0.34 3.5,1.02 0.31,0.68 -0.13,2.17 -1.32,4.48l-1.83 3.53c-0.78,1.52 -1.49,2.59 -2.12,3.2 -0.63,0.62 -1.43,1.11 -2.39,1.46 0.61,0.3 0.91,0.75 0.91,1.36 0.01,0.61 -0.32,1.55 -0.97,2.8l-4.76 9.2 -4.59 0 5.18 -10.02c0.23,-0.45 0.32,-0.77 0.25,-0.96 -0.08,-0.19 -0.3,-0.28 -0.69,-0.28 -0.05,0 -0.12,0.01 -0.2,0.02 -0.09,0.01 -0.15,0.01 -0.2,0.01l-5.81 11.23 -4.63 0 14 -27.05zm15.25 5.37l-7.11 12.32 1.56 0 5.68 -12.32 -0.13 0zm-0.26 -5.37l6.17 0 -11.27 27.05 -4.5 0 2.64 -5.76 -1.92 0 -3.32 5.76 -4.46 0 16.66 -27.05z"/>
   <path class="fil2 str0" d="M125.19 0.23c-0.39,1.15 -0.77,2.3 -1.16,3.45 -35.29,0.05 -70.58,0.1 -105.87,0.15 -5.93,11.43 -11.85,22.87 -17.78,34.3 36.34,-0.14 72.58,0.36 108.92,0.21 -2.02,4.98 -3.94,9.31 -5.97,14.28 4.92,0 9.84,0 14.77,0 1.54,-4.01 3.08,-8.01 4.63,-12.02 0.87,6.1 3.24,11.69 7.53,16.65 5.74,-3.68 11.48,-7.36 17.22,-11.04 -5.82,-4.78 -9.14,-11.02 -10.13,-18.64 9.33,-7.65 16.91,-17.05 21.99,-27.22 -6.81,0 -9.25,0 -16.05,0 -2.2,4.77 -5.49,8.38 -8.83,11.15 1.01,-3.76 2.87,-7.51 3.88,-11.27 -4.24,0 -8.91,0 -13.15,0z"/>
   <polygon class="fil3" points="1.83,43.27 0,38.36 0.04,38.29 109.08,38.48 106.68,44.58 "/>
  </g>
 </g>
</svg>
